<?xml version="1.0" encoding="UTF-8" standalone="no"?>
<svg
   xmlns:dc="http://purl.org/dc/elements/1.1/"
   xmlns:cc="http://creativecommons.org/ns#"
   xmlns:rdf="http://www.w3.org/1999/02/22-rdf-syntax-ns#"
   xmlns:svg="http://www.w3.org/2000/svg"
   xmlns="http://www.w3.org/2000/svg"
   xmlns:sodipodi="http://sodipodi.sourceforge.net/DTD/sodipodi-0.dtd"
   xmlns:inkscape="http://www.inkscape.org/namespaces/inkscape"
   inkscape:version="1.0 (4035a4fb49, 2020-05-01)"
   sodipodi:docname="hackerrank.svg"
   id="svg2316"
   version="1.1"
   viewBox="0 0 24 24"
   role="img">
  <metadata
     id="metadata2322">
    <rdf:RDF>
      <cc:Work
         rdf:about="">
        <dc:format>image/svg+xml</dc:format>
        <dc:type
           rdf:resource="http://purl.org/dc/dcmitype/StillImage" />
      </cc:Work>
    </rdf:RDF>
  </metadata>
  <defs
     id="defs2320" />
  <sodipodi:namedview
     inkscape:current-layer="svg2316"
     inkscape:window-maximized="0"
     inkscape:window-y="0"
     inkscape:window-x="0"
     inkscape:cy="12"
     inkscape:cx="12"
     inkscape:zoom="35.541667"
     showgrid="false"
     id="namedview2318"
     inkscape:window-height="1056"
     inkscape:window-width="1920"
     inkscape:pageshadow="2"
     inkscape:pageopacity="0"
     guidetolerance="10"
     gridtolerance="10"
     objecttolerance="10"
     borderopacity="1"
     bordercolor="#666666"
     pagecolor="#ffffff" />
  <title
     id="title2312">HackerRank icon</title>
  <path
     style="fill:#2ec866;fill-opacity:1"
     id="path2314"
     d="M12 0c1.285 0 9.75 4.886 10.392 6 .645 1.115.645 10.885 0 12S13.287 24 12 24s-9.75-4.885-10.395-6c-.641-1.115-.641-10.885 0-12C2.25 4.886 10.715 0 12 0zm2.295 6.799c-.141 0-.258.115-.258.258v3.875H9.963V6.908h.701c.141 0 .254-.115.254-.258 0-.094-.049-.176-.123-.221L9.223 4.92c-.049-.063-.141-.109-.226-.109-.084 0-.16.045-.207.107L7.11 6.43c-.072.045-.12.126-.12.218 0 .143.113.258.255.258h.704l.008 10.035c0 .145.111.258.254.258h1.492c.142 0 .259-.115.259-.256v-4.004h4.073v4.152h-.699c-.143 0-.256.115-.256.258 0 .092.048.174.119.219l1.579 1.51c.044.061.141.109.225.109.085 0 .159-.045.208-.109l1.679-1.51c.072-.045.12-.127.12-.219 0-.143-.115-.258-.255-.258h-.704l-.007-10.034c0-.145-.114-.26-.255-.26h-1.494v.002z" />
</svg>
