<?xml version="1.0" encoding="UTF-8" standalone="no"?>
<svg
   xmlns:dc="http://purl.org/dc/elements/1.1/"
   xmlns:cc="http://creativecommons.org/ns#"
   xmlns:rdf="http://www.w3.org/1999/02/22-rdf-syntax-ns#"
   xmlns:svg="http://www.w3.org/2000/svg"
   xmlns="http://www.w3.org/2000/svg"
   xmlns:sodipodi="http://sodipodi.sourceforge.net/DTD/sodipodi-0.dtd"
   xmlns:inkscape="http://www.inkscape.org/namespaces/inkscape"
   inkscape:version="1.0 (4035a4fb49, 2020-05-01)"
   sodipodi:docname="python.svg"
   id="svg1018"
   version="1.1"
   role="img"
   viewBox="0 0 24 24">
  <metadata
     id="metadata1024">
    <rdf:RDF>
      <cc:Work
         rdf:about="">
        <dc:format>image/svg+xml</dc:format>
        <dc:type
           rdf:resource="http://purl.org/dc/dcmitype/StillImage" />
      </cc:Work>
    </rdf:RDF>
  </metadata>
  <defs
     id="defs1022" />
  <sodipodi:namedview
     inkscape:current-layer="svg1018"
     inkscape:window-maximized="0"
     inkscape:window-y="0"
     inkscape:window-x="0"
     inkscape:cy="12"
     inkscape:cx="12"
     inkscape:zoom="35.541667"
     showgrid="false"
     id="namedview1020"
     inkscape:window-height="1056"
     inkscape:window-width="1920"
     inkscape:pageshadow="2"
     inkscape:pageopacity="0"
     guidetolerance="10"
     gridtolerance="10"
     objecttolerance="10"
     borderopacity="1"
     bordercolor="#666666"
     pagecolor="#ffffff" />
  <title
     id="title1014">Python icon</title>
  <path
     id="path1069"
     d="m 14.63,20.36 -0.23,0.33 -0.08,0.41 0.08,0.41 0.23,0.33 0.33,0.23 0.41,0.08 0.41,-0.08 0.33,-0.23 0.23,-0.33 0.08,-0.41 -0.08,-0.41 -0.23,-0.33 -0.33,-0.23 -0.41,-0.08 -0.41,0.08 z" />
  <path
     style="fill:#f7c93d;fill-opacity:1"
     id="path1067"
     d="m 21.1,6.11 0.28,0.06 0.32,0.12 0.35,0.18 0.36,0.27 0.36,0.35 0.35,0.47 0.32,0.59 0.28,0.73 0.21,0.88 0.14,1.04 0.05,1.23 -0.06,1.23 -0.16,1.04 -0.24,0.86 -0.32,0.71 -0.36,0.57 -0.4,0.45 -0.42,0.33 -0.42,0.24 -0.4,0.16 -0.36,0.09 -0.32,0.05 -0.24,0.02 -0.16,-0.01 h -8.22 v 0.82 h 5.84 l 0.01,2.76 0.02,0.36 -0.05,0.34 -0.11,0.31 -0.17,0.29 -0.25,0.25 -0.31,0.24 -0.38,0.2 -0.44,0.17 -0.51,0.15 -0.58,0.13 -0.64,0.09 -0.71,0.07 -0.77,0.04 L 12.15,24 10.88,23.96 9.81,23.82 8.91,23.62 8.18,23.37 7.59,23.07 7.14,22.74 6.8,22.4 6.55,22.06 6.39,21.73 6.29,21.43 6.25,21.18 6.23,20.98 6.24,20.85 v -5.34 l 0.05,-0.64 0.13,-0.54 0.21,-0.46 0.26,-0.38 0.3,-0.32 0.33,-0.24 0.35,-0.2 0.35,-0.14 0.33,-0.1 0.3,-0.06 0.26,-0.04 0.21,-0.02 0.13,-0.01 h 5.84 l 0.69,-0.05 0.59,-0.14 0.5,-0.21 0.41,-0.28 0.33,-0.32 0.27,-0.35 0.2,-0.36 0.15,-0.36 0.1,-0.35 0.07,-0.32 0.04,-0.28 0.02,-0.21 V 6.07 h 2.09 l 0.14,0.01 z" />
  <path
     id="path1065"
     d="M 8.01,2.16 7.78,2.49 7.7,2.9 7.78,3.31 8.01,3.65 8.34,3.87 8.75,3.96 9.16,3.87 9.49,3.65 9.72,3.31 9.8,2.9 9.72,2.49 9.49,2.16 9.16,1.94 8.75,1.85 8.34,1.94 Z" />
  <path
     style="fill:#34668f;fill-opacity:1"
     id="path1016"
     d="m 14.31,0.18 0.9,0.2 0.73,0.26 0.59,0.3 0.45,0.32 0.34,0.34 0.25,0.34 0.16,0.33 0.1,0.3 0.04,0.26 0.02,0.2 -0.01,0.13 V 8.5 l -0.05,0.63 -0.13,0.55 -0.21,0.46 -0.26,0.38 -0.3,0.31 -0.33,0.25 -0.35,0.19 -0.35,0.14 -0.33,0.1 -0.3,0.07 -0.26,0.04 -0.21,0.02 H 8.83 l -0.69,0.05 -0.59,0.14 -0.5,0.22 -0.41,0.27 -0.33,0.32 -0.27,0.35 -0.2,0.36 -0.15,0.37 -0.1,0.35 -0.07,0.32 -0.04,0.27 -0.02,0.21 v 3.06 H 3.23 L 3.02,17.9 2.74,17.83 2.42,17.71 2.07,17.53 1.71,17.27 1.35,16.91 1,16.45 0.68,15.86 0.4,15.13 0.19,14.25 0.05,13.2 0,11.97 0.06,10.75 0.22,9.71 0.46,8.84 0.78,8.13 1.14,7.56 1.54,7.12 1.96,6.79 2.38,6.55 2.78,6.39 3.14,6.29 3.46,6.24 3.7,6.23 h 0.16 l 0.06,0.01 h 8.16 V 5.41 H 6.24 L 6.23,2.66 6.21,2.29 6.26,1.95 6.37,1.64 6.54,1.36 6.79,1.1 7.1,0.87 7.48,0.67 7.92,0.49 8.43,0.34 9.01,0.22 9.65,0.12 10.36,0.06 11.13,0.02 11.97,0 13.24,0.05 Z" />
  <ellipse
     cx="8.7436705"
     cy="2.890069"
     rx="1.0443679"
     ry="1.0462937"
     id="path1042"
     style="fill:#ffffff;fill-opacity:1;stroke-width:2.19042" />
  <ellipse
     style="fill:#ffffff;fill-opacity:1;stroke-width:2.19042"
     id="path1042-3"
     ry="1.0462937"
     rx="1.0443679"
     cy="21.114017"
     cx="15.354109" />
</svg>
