<?xml version="1.0" encoding="UTF-8" standalone="no"?>
<svg
   xmlns:dc="http://purl.org/dc/elements/1.1/"
   xmlns:cc="http://creativecommons.org/ns#"
   xmlns:rdf="http://www.w3.org/1999/02/22-rdf-syntax-ns#"
   xmlns:svg="http://www.w3.org/2000/svg"
   xmlns="http://www.w3.org/2000/svg"
   xmlns:sodipodi="http://sodipodi.sourceforge.net/DTD/sodipodi-0.dtd"
   xmlns:inkscape="http://www.inkscape.org/namespaces/inkscape"
   inkscape:version="1.0 (4035a4fb49, 2020-05-01)"
   sodipodi:docname="ruby.svg"
   id="svg953"
   version="1.1"
   viewBox="0 0 24 24"
   role="img">
  <metadata
     id="metadata959">
    <rdf:RDF>
      <cc:Work
         rdf:about="">
        <dc:format>image/svg+xml</dc:format>
        <dc:type
           rdf:resource="http://purl.org/dc/dcmitype/StillImage" />
      </cc:Work>
    </rdf:RDF>
  </metadata>
  <defs
     id="defs957" />
  <sodipodi:namedview
     inkscape:current-layer="svg953"
     inkscape:window-maximized="0"
     inkscape:window-y="0"
     inkscape:window-x="0"
     inkscape:cy="12"
     inkscape:cx="12"
     inkscape:zoom="35.541667"
     showgrid="false"
     id="namedview955"
     inkscape:window-height="1056"
     inkscape:window-width="1920"
     inkscape:pageshadow="2"
     inkscape:pageopacity="0"
     guidetolerance="10"
     gridtolerance="10"
     objecttolerance="10"
     borderopacity="1"
     bordercolor="#666666"
     pagecolor="#ffffff" />
  <title
     id="title949">Ruby icon</title>
  <path
     id="path965"
     d="M 5.13,5.073 C 8.691,1.54 13.287,-0.548 15.052,1.233 16.814,3.01 14.947,7.338 11.379,10.869 7.816,14.401 3.276,16.603 1.515,14.826 -0.251,13.049 1.56,8.609 5.127,5.076 Z"
     style="fill:#cc342d;fill-opacity:1" />
  <path
     id="path963"
     d="m 0,19.089 v 0.026 -0.029 z"
     style="fill:#cc342d;fill-opacity:1" />
  <path
     id="path951"
     d="m 20.156,0.083 c 3.033,0.525 3.893,2.598 3.829,4.77 L 24,4.822 22.635,22.71 4.89,23.926 H 4.906 C 3.433,23.864 0.15,23.729 0,19.139 l 1.645,-3 2.819,6.586 0.503,1.172 2.805,-9.144 -0.03,0.007 0.016,-0.03 9.255,2.956 -1.396,-5.431 -0.99,-3.9 8.82,-0.569 L 22.832,7.276 16.5,2.114 20.159,0.073 Z"
     style="fill:#960f0f;fill-opacity:1" />
</svg>
