<?xml version="1.0" encoding="UTF-8" standalone="no"?>
<svg
   xmlns:dc="http://purl.org/dc/elements/1.1/"
   xmlns:cc="http://creativecommons.org/ns#"
   xmlns:rdf="http://www.w3.org/1999/02/22-rdf-syntax-ns#"
   xmlns:svg="http://www.w3.org/2000/svg"
   xmlns="http://www.w3.org/2000/svg"
   xmlns:sodipodi="http://sodipodi.sourceforge.net/DTD/sodipodi-0.dtd"
   xmlns:inkscape="http://www.inkscape.org/namespaces/inkscape"
   inkscape:version="1.0 (4035a4fb49, 2020-05-01)"
   sodipodi:docname="travisci.svg"
   id="svg1978"
   version="1.1"
   viewBox="0 0 24 24"
   role="img">
  <metadata
     id="metadata1984">
    <rdf:RDF>
      <cc:Work
         rdf:about="">
        <dc:format>image/svg+xml</dc:format>
        <dc:type
           rdf:resource="http://purl.org/dc/dcmitype/StillImage" />
      </cc:Work>
    </rdf:RDF>
  </metadata>
  <defs
     id="defs1982" />
  <sodipodi:namedview
     inkscape:current-layer="svg1978"
     inkscape:window-maximized="0"
     inkscape:window-y="0"
     inkscape:window-x="0"
     inkscape:cy="12"
     inkscape:cx="12"
     inkscape:zoom="35.541667"
     showgrid="false"
     id="namedview1980"
     inkscape:window-height="1056"
     inkscape:window-width="1920"
     inkscape:pageshadow="2"
     inkscape:pageopacity="0"
     guidetolerance="10"
     gridtolerance="10"
     objecttolerance="10"
     borderopacity="1"
     bordercolor="#666666"
     pagecolor="#ffffff" />
  <title
     id="title1974">Travis CI icon</title>
  <path
     style="fill:#c62f48;fill-opacity:1"
     id="path2052"
     d="M 23.94,8.46 A 4.57,4.57 0 0 0 23.9,8.2 L 23.84,7.93 23.82,7.87 23.77,7.83 A 4.68,4.68 0 0 0 22.9,7.3 C 22.65,7.19 22.4,7.08 22.14,6.99 A 10.8,10.8 0 0 0 18.58,2.03 9.3,9.3 0 0 0 7.25,2.03 10.83,10.83 0 0 0 3.7,7 L 2.95,7.31 C 2.65,7.46 2.35,7.62 2.07,7.84 L 2.02,7.88 2,7.94 a 3.02,3.02 0 0 0 -0.1,0.53 6.1,6.1 0 0 0 -0.02,1.57 6.71,6.71 0 0 0 0.47,1.78 l 0.06,0.13 0.04,0.06 0.04,0.07 0.03,0.05 0.06,0.03 a 4,4 0 0 0 0.16,0.08 l 0.16,0.07 0.08,0.04 C 2.28,13 1.51,13.85 0.84,14.9 L 0,16.21 1.18,15.18 c 0.02,-0.02 1,-0.87 2.66,-1.84 l 0.02,0.19 c -0.1,0.05 -0.63,0.32 -0.78,0.45 -0.26,0.21 -0.27,0.54 -0.2,1.16 0.03,0.31 0.15,0.92 0.31,1.48 0.28,0.97 0.48,1.14 0.65,1.18 0.08,0.02 0.19,0.03 0.3,0.03 0.32,0 0.72,-0.07 0.99,-0.14 0.3,0.96 0.75,1.83 1.28,2.6 -0.03,0 -0.05,0 -0.08,0.02 l -1.82,-0.85 -0.8,-0.35 0.47,0.73 c 0.04,0.05 0.84,1.3 1.5,2.15 a 3.6,3.6 0 0 0 3.05,1.6 c 0.2,0 0.4,0 0.6,-0.03 l 1.1,-0.13 a 7.46,7.46 0 0 0 6.6,-0.67 c 0.66,-0.15 1.4,-0.33 1.76,-0.43 l 0.2,-0.05 c 0.51,-0.12 1.36,-0.32 1.81,-1.22 l 1.2,-2.33 0.36,-0.65 -0.68,0.3 c -0.04,0.01 -0.9,0.39 -1.34,0.62 -0.02,0 -0.03,0.02 -0.05,0.03 0.36,-0.74 0.54,-1.33 0.6,-1.56 0.26,0.06 0.63,0.05 0.9,0.05 0.13,0 0.27,-0.02 0.36,-0.04 0.17,-0.05 0.31,-0.17 0.57,-1.16 0.15,-0.58 0.26,-1.21 0.28,-1.53 0.06,-0.64 0.04,-0.97 -0.21,-1.19 -0.13,-0.1 -0.5,-0.3 -0.7,-0.4 l 0.01,-0.07 0.15,0.03 0.18,-0.65 a 7.02,7.02 0 0 1 0.51,-0.21 l 0.16,-0.07 0.16,-0.08 0.06,-0.03 0.03,-0.05 0.05,-0.07 0.03,-0.06 0.06,-0.13 a 4.09,4.09 0 0 0 0.28,-0.75 6.24,6.24 0 0 0 0.17,-2.6 z" />
  <path
     id="path2080"
     d="M 11.86,4.42 H 10.42 V 2.38 h 5.1 v 2.04 h -1.45 v -0.6 h -0.33 v 2.76 h 0.5 V 8.12 H 11.7 V 6.58 h 0.5 V 3.82 h -0.33 v 0.6 z" />
  <path
     style="fill:#d9d192;fill-opacity:1"
     id="path2078"
     d="m 23.46,9.97 a 7.05,7.05 0 0 1 -0.43,1.63 l -0.05,0.1 -0.02,0.04 -0.07,0.04 -0.15,0.06 -0.15,0.07 0.26,-0.97 A 25.1,25.1 0 0 0 21.26,10.6 l 0.1,-0.02 a 4.3,4.3 0 0 0 0.86,-0.32 0.9,0.9 0 0 0 0.24,-0.19 c -0.96,0.32 -2.96,0.17 -4.73,0 A 48.05,48.05 0 0 0 12.86,9.78 c -1.64,0 -3.26,0.12 -4.88,0.28 -1.77,0.19 -3.76,0.33 -4.73,0.01 0.07,0.08 0.16,0.14 0.25,0.19 l 0.27,0.14 a 4.47,4.47 0 0 0 0.8,0.23 C 3.7,10.79 3.19,10.93 3.13,10.94 L 3.4,11.96 3.38,11.98 3.1,11.85 2.95,11.78 2.88,11.74 2.86,11.7 2.81,11.6 A 5.3,5.3 0 0 1 2.38,9.97 7.16,7.16 0 0 1 2.39,8.1 C 2.61,7.92 2.85,7.76 3.1,7.6 a 16.84,16.84 0 0 1 2.21,-1 L 5.78,6.44 A 10.27,10.27 0 0 0 4.2,6.82 9.47,9.47 0 0 1 12.92,0.55 c 3.8,0 7.27,2.47 8.72,6.27 a 12.29,12.29 0 0 0 -1.57,-0.38 22.77,22.77 0 0 1 1.81,0.73 c 0.29,0.13 0.58,0.28 0.85,0.44 0.26,0.14 0.5,0.3 0.72,0.49 l 0.03,0.17 0.02,0.24 a 7.2,7.2 0 0 1 -0.04,1.46 z" />
  <path
     style="fill:#606664;fill-opacity:1"
     id="path2076"
     d="m 21.93,12.63 c -0.73,-0.16 -2.33,-0.48 -4.52,-0.7 0.72,-0.3 1.45,-0.68 2.1,-1.15 1.3,0.18 2.26,0.38 2.78,0.5 z" />
  <path
     style="fill:#a59589;fill-opacity:1"
     id="path2074"
     d="m 22.5,13.96 c 0.06,0.05 0.1,0.18 0.05,0.79 A 6.93,6.93 0 0 1 21.98,17 c -0.21,0.04 -0.66,0 -0.93,-0.07 l 0.1,-0.47 0.47,-0.33 a 0.16,0.16 0 0 0 0.07,-0.11 l 0.34,-2.34 z" />
  <path
     style="fill:#606664;fill-opacity:1"
     id="path2072"
     d="M 19.43,17.26 14.35,16.68 13.59,14.17 A 0.17,0.17 0 0 0 13.46,14.05 3.34,3.34 0 0 0 12.96,14 c -0.14,0 -0.3,0.02 -0.5,0.05 a 0.17,0.17 0 0 0 -0.12,0.12 l -0.75,2.45 -5.04,1.12 -2,-1.4 -0.4,-3.18 0.26,-0.15 0.42,-0.08 0.37,3 c 0,0.05 0.03,0.1 0.07,0.12 l 1.38,0.96 c 0.02,0.02 0.06,0.03 0.09,0.03 h 0.04 l 4.15,-0.92 0.04,-0.02 A 0.16,0.16 0 0 0 11.05,16 l 0.75,-2.46 c 0.2,-0.05 0.7,-0.17 1.16,-0.17 0.45,0 0.96,0.12 1.17,0.17 L 14.87,16 c 0.02,0.07 0.08,0.11 0.14,0.12 l 4.15,0.47 c 0.04,0 0.08,0 0.12,-0.03 l 1.37,-0.96 a 0.17,0.17 0 0 0 0.07,-0.11 l 0.37,-2.58 0.69,0.15 -0.41,2.84 -1.95,1.36 z" />
  <path
     style="fill:#dfc9a3;fill-opacity:1"
     id="path2070"
     d="m 20.59,17.14 c -0.23,0.75 -0.5,1.4 -0.81,2 h -0.22 c -0.24,0 -0.48,-0.02 -0.75,-0.04 l -1.43,-0.15 -1.46,-1.16 -0.06,-0.05 a 0.6,0.6 0 0 0 -0.45,-0.18 c -0.2,0 -0.51,0.08 -1.26,0.3 0.39,-0.29 0.4,-0.66 0.4,-0.66 0,0 -0.56,0.51 -1.44,0.62 -0.89,0.12 -1.58,-0.42 -1.58,-0.42 0.03,0.09 0.07,0.3 0.27,0.48 A 6.6,6.6 0 0 0 10.75,17.84 C 10.21,17.87 9.45,18.7 8.9,19.53 L 6.86,20.15 C 5.96,18.92 5.52,17.65 5.48,17.52 l -0.05,-0.15 0.23,0.16 0.56,0.4 0.2,0.13 c 0.02,0.02 0.05,0.03 0.09,0.03 h 0.04 l 5.2,-1.17 c 0.07,0 0.11,-0.05 0.13,-0.1 l 0.74,-2.46 a 2.45,2.45 0 0 1 0.68,0 l 0.76,2.53 c 0.02,0.06 0.08,0.1 0.15,0.11 l 0.35,0.04 4.89,0.56 c 0.04,0 0.08,0 0.12,-0.03 l 0.49,-0.34 0.45,-0.32 0.17,-0.12 z" />
  <path
     style="fill:#dfc9a3;fill-opacity:1"
     id="path2068"
     d="M 13.3,23.52 A 5.95,5.95 0 0 1 11.32,23.3 l 0.14,-0.02 c 0.06,0 1.23,-0.16 1.76,-0.94 h 0.18 l 0.25,-0.01 c 0.2,-0.02 0.39,-0.05 0.58,-0.09 l 0.06,0.06 c 0.4,0.4 0.9,0.62 1.43,0.66 -0.77,0.31 -1.6,0.5 -2.42,0.55 z" />
  <path
     style="fill:#dfc9a3;fill-opacity:1"
     id="path2066"
     d="m 14.01,22.02 -0.38,0.05 h -0.27 l 0.23,-0.51 0.43,0.46 z" />
  <path
     style="fill:#a59589;fill-opacity:1"
     id="path2064"
     d="M 3.97,17.36 C 3.77,17.16 3.41,15.81 3.33,15.09 3.27,14.51 3.31,14.38 3.37,14.33 3.44,14.27 3.7,14.13 3.92,14 l 0.3,2.46 c 0,0.04 0.03,0.09 0.07,0.11 l 0.62,0.44 0.08,0.25 c -0.26,0.07 -0.78,0.15 -1.02,0.1 z" />
  <path
     style="fill:#606664;fill-opacity:1"
     id="path2062"
     d="m 15.29,10.71 c -0.23,0.3 -0.55,0.67 -0.94,1.03 a 46.5,46.5 0 0 0 -3.59,0.04 17.64,17.64 0 0 1 4.65,-1.23 z" />
  <path
     style="fill:#c2ab93;fill-opacity:1"
     id="path2060"
     d="m 13.37,13.05 c 0.07,-0.01 1.45,-0.18 3.08,-0.74 1.82,0.14 3.3,0.36 4.31,0.54 l -0.36,2.52 -1.26,0.88 -3.98,-0.45 -0.74,-2.44 a 0.16,0.16 0 0 0 -0.11,-0.11 c -0.03,-0.01 -0.52,-0.15 -1.04,-0.2 z" />
  <path
     style="fill:#c2ab93;fill-opacity:1"
     id="path2058"
     d="m 7.97,12.45 c -0.13,0.15 -0.24,0.3 -0.36,0.47 l -0.68,0.97 1,-0.66 c 0,0 0.64,-0.43 1.67,-0.93 a 46,46 0 0 1 4.26,-0.12 c -0.2,0.16 -0.41,0.32 -0.63,0.45 l -0.73,0.44 c -0.46,0.06 -0.86,0.17 -0.88,0.18 a 0.1,0.1 0 0 0 -0.04,0.01 0.17,0.17 0 0 0 -0.07,0.1 L 10.76,15.81 6.78,16.7 5.52,15.82 5.16,12.86 c 0.71,-0.13 1.66,-0.28 2.8,-0.4 z" />
  <path
     style="fill:#606664;fill-opacity:1"
     id="path2056"
     d="m 9.58,10.99 c -0.36,0.25 -0.76,0.57 -1.15,0.96 -0.87,0.09 -1.73,0.2 -2.59,0.34 1.1,-0.51 2.37,-0.98 3.74,-1.3 z" />
  <path
     style="fill:#606664;fill-opacity:1"
     id="path2054"
     d="M 3.68,11.27 A 27,27 0 0 1 4.53,11.1 c -0.26,0.17 -0.5,0.36 -0.75,0.55 z" />
  <path
     id="path2050"
     d="M 9.21,13.66 A 0.26504717,0.26504717 0 0 1 9.22,14.19 0.26504717,0.26504717 0 1 1 9.21,13.66 Z" />
  <path
     id="path2048"
     d="m 8.76,15.38 h 0.32 c 0.52,0 0.94,0.04 0.94,-0.77 -0.01,-0.8 -0.37,-1.46 -0.88,-1.46 -0.52,0 -1.02,0.67 -0.99,1.48 0.01,0.21 0.04,0.36 0.1,0.47 -0.46,0.12 -0.58,0.4 -0.59,0.41 0.28,-0.15 0.6,-0.13 1.1,-0.13 z" />
  <path
     id="path2046"
     d="m 16.6,13.47 a 0.265,0.265 0 1 1 0,0.53 0.265,0.265 0 0 1 0,-0.53 z" />
  <path
     id="path2044"
     d="m 16.8,15.24 c 0.7,-0.02 1.07,-0.23 1.42,-0.06 0,-0.02 -0.11,-0.35 -0.6,-0.29 a 1,1 0 0 0 0.07,-0.5 c -0.07,-0.81 -0.53,-1.45 -1.05,-1.44 -0.51,0.02 -0.84,0.7 -0.82,1.5 0.03,0.81 0.47,0.8 0.98,0.79 z" />
  <path
     id="path2042"
     d="M 19.76,9.2 A 16.19,16.19 0 0 0 17.09,8.7 H 17 l 0.02,-0.03 a 7.2,7.2 0 0 0 0.2,-2.19 l 2.46,0.7 a 8.1,8.1 0 0 1 0.07,2.02 z" />
  <path
     id="path2040"
     d="M 16.71,8.58 V 8.66 A 29.2,29.2 0 0 0 15.94,8.59 c 0.3,-0.6 0.35,-1.25 0.37,-1.48 0.22,-0.15 0.44,-0.34 0.6,-0.5 0.02,0.44 0,1.23 -0.2,1.97 z" />
  <path
     id="path2038"
     d="M 9.13,8.66 V 8.58 A 7,7 0 0 1 8.93,6.62 c 0.16,0.15 0.38,0.34 0.6,0.5 0.02,0.22 0.08,0.87 0.37,1.47 z" />
  <path
     id="path2036"
     d="M 8.76,8.7 A 22.58,22.58 0 0 0 6.08,9.2 C 6.06,9.05 5.98,8.26 6.15,7.18 L 8.61,6.48 A 7.31,7.31 0 0 0 8.83,8.7 Z" />
  <path
     style="fill:#ede6aa;fill-opacity:1"
     id="path1976"
     d="M 20.07,9.29 V 9.27 C 20.08,9.23 20.21,8.32 19.99,7.03 A 0.16,0.16 0 0 0 19.88,6.9 L 19.53,6.8 c -0.08,-2.71 -1.2,-4 -1.23,-4.03 1,1.6 0.99,3.51 0.97,3.96 L 17.1,6.1 h -0.04 a 0.2,0.2 0 0 0 -0.04,0 h -0.03 l -0.01,0.01 -0.03,0.02 -0.01,0.01 -0.15,0.14 a 8.99,8.99 0 0 0 -1,-4.47 c 0.03,0.06 0.8,2.33 0.53,4.87 a 3.7,3.7 0 0 1 -0.26,0.2 0.17,0.17 0 0 0 -0.07,0.13 3.9,3.9 0 0 1 -0.4,1.55 39.29,39.29 0 0 0 -5.35,0 L 10.23,8.52 A 3.88,3.88 0 0 1 9.85,7.02 C 9.85,6.96 9.83,6.92 9.78,6.88 A 3.92,3.92 0 0 1 9.51,6.68 C 9.25,4.14 10.02,1.87 10.04,1.81 A 9,9 0 0 0 9.05,6.28 L 8.9,6.14 8.89,6.13 8.86,6.11 8.83,6.1 H 8.79 8.75 L 6.57,6.72 A 7.45,7.45 0 0 1 7.54,2.76 C 7.51,2.8 6.39,4.08 6.31,6.79 L 5.96,6.89 A 0.16,0.16 0 0 0 5.85,7.02 C 5.63,8.32 5.75,9.22 5.76,9.26 V 9.28 L 5.68,9.3 A 5,5 0 0 0 4.72,9.7 C 4.88,9.64 5.04,9.6 5.22,9.55 A 16.12,16.12 0 0 1 7.77,9.17 L 8.79,9.09 c 1.38,-0.08 2.75,-0.1 4.13,-0.1 a 67.74,67.74 0 0 1 5.16,0.18 21.88,21.88 0 0 1 2.55,0.38 c 0.17,0.04 0.33,0.09 0.5,0.15 A 4.9,4.9 0 0 0 20.16,9.3 L 20.07,9.28 Z" />
</svg>
